<?xml version="1.0" encoding="UTF-8" standalone="no"?>
<!-- Created with Inkscape (http://www.inkscape.org/) -->

<svg
   xmlns:dc="http://purl.org/dc/elements/1.1/"
   xmlns:cc="http://creativecommons.org/ns#"
   xmlns:rdf="http://www.w3.org/1999/02/22-rdf-syntax-ns#"
   xmlns:svg="http://www.w3.org/2000/svg"
   xmlns="http://www.w3.org/2000/svg"
   xmlns:sodipodi="http://sodipodi.sourceforge.net/DTD/sodipodi-0.dtd"
   xmlns:inkscape="http://www.inkscape.org/namespaces/inkscape"
   id="svg2"
   version="1.1"
   inkscape:version="0.48.3.1 r9886"
   width="455.25546"
   height="90.229874"
   xml:space="preserve"
   sodipodi:docname="mail-logo.eps"><metadata
     id="metadata8"><rdf:RDF><cc:Work
         rdf:about=""><dc:format>image/svg+xml</dc:format><dc:type
           rdf:resource="http://purl.org/dc/dcmitype/StillImage" /><dc:title></dc:title></cc:Work></rdf:RDF></metadata><defs
     id="defs6"><clipPath
       clipPathUnits="userSpaceOnUse"
       id="clipPath18"><path
         d="m 0,8418.9 5952.75,0 L 5952.75,0 0,0 0,8418.9 z"
         id="path20"
         inkscape:connector-curvature="0" /></clipPath></defs><sodipodi:namedview
     pagecolor="#ffffff"
     bordercolor="#666666"
     borderopacity="1"
     objecttolerance="10"
     gridtolerance="10"
     guidetolerance="10"
     inkscape:pageopacity="0"
     inkscape:pageshadow="2"
     inkscape:window-width="1301"
     inkscape:window-height="744"
     id="namedview4"
     showgrid="false"
     fit-margin-top="0"
     fit-margin-left="0"
     fit-margin-right="0"
     fit-margin-bottom="0"
     inkscape:zoom="0.22425732"
     inkscape:cx="-332.23832"
     inkscape:cy="-51.233901"
     inkscape:window-x="65"
     inkscape:window-y="24"
     inkscape:window-maximized="1"
     inkscape:current-layer="g10" /><g
     id="g10"
     inkscape:groupmode="layer"
     inkscape:label="ink_ext_XXXXXX"
     transform="matrix(1.25,0,0,-1.25,-178.10703,667.645)"><g
       id="g12"
       transform="scale(0.1,0.1)"><g
         id="g14"><g
           id="g16"
           clip-path="url(#clipPath18)"><path
             d="m 1930.97,4983.67 c -4.28,83.18 -66.03,133.2 -140.59,133.2 l -2.82,0 c -86.04,0 -133.77,-67.67 -133.77,-144.54 0,-86.06 57.74,-140.43 133.44,-140.43 84.41,0 139.9,61.82 143.93,134.97 l -0.19,16.8 z m -142.98,207.63 c 57.5,0 111.56,-25.41 151.25,-65.2 l 0,-0.15 c 0,19.1 12.85,33.5 30.7,33.5 l 4.52,0.03 c 27.92,0 33.65,-26.41 33.65,-34.78 l 0.14,-297.03 c -1.98,-19.45 20.06,-29.49 32.28,-17.01 47.71,49.01 104.76,251.97 -29.65,369.56 -125.26,109.64 -293.34,91.58 -382.72,29.96 -95.02,-65.53 -155.83,-210.59 -96.76,-346.84 64.38,-148.6 248.62,-192.92 358.11,-148.69 55.46,22.36 81.08,-52.59 23.48,-77.07 -87.01,-37.06 -329.19,-33.32 -442.33,162.65 -76.44,132.33 -72.38,365.15 130.36,485.79 155.08,92.29 359.55,66.76 482.85,-62.01 128.88,-134.63 121.36,-386.7 -4.36,-484.69 -56.95,-44.52 -141.54,-1.2 -141,63.68 l -0.59,21.21 c -39.66,-39.35 -92.43,-62.31 -149.93,-62.31 -113.61,0 -213.57,99.94 -213.57,213.54 0,114.74 99.96,215.86 213.57,215.86"
             style="fill:#f89c0e;fill-opacity:1;fill-rule:evenodd;stroke:none"
             id="path22"
             inkscape:connector-curvature="0" /><path
             d="m 4009.41,4758.45 c -0.23,-18.4 -19.46,-37.23 -47.36,-37.23 -28.17,0 -45.69,20.54 -45.69,38.73 l 0.04,31.44 c 0.31,18.9 17.81,38.53 46.37,38.53 31.23,0 46.75,-21.05 46.75,-40.84"
             style="fill:#f89c0e;fill-opacity:1;fill-rule:evenodd;stroke:none"
             id="path24"
             inkscape:connector-curvature="0" /><path
             d="m 3539.39,5273.98 c 0,-19.38 -19.41,-35.31 -47.32,-35.31 -28.12,0 -45.64,19.26 -45.64,37.42 l 0.02,24.99 c 0.32,18.91 16.84,40.08 45.37,40.08 31.23,0 47.57,-20.26 47.57,-40.08"
             style="fill:#ffffff;fill-opacity:1;fill-rule:nonzero;stroke:none"
             id="path26"
             inkscape:connector-curvature="0" /><path
             d="m 4993.95,5237.63 0,-20.34 14.78,0 c 3.82,0 6.77,0.95 8.86,2.79 2.03,1.88 3.11,4.44 3.18,7.68 -0.07,3.2 -1.11,5.62 -3.07,7.29 -1.95,1.67 -5.36,2.54 -10.18,2.58 l -13.57,0 z m -10.04,-51.5 0,58.02 25.21,0 c 7.24,-0.08 12.7,-1.37 16.45,-3.97 3.7,-2.58 5.57,-6.63 5.66,-12.17 0,-3.68 -1.14,-6.68 -3.41,-9.07 -2.25,-2.39 -5.21,-3.96 -8.71,-4.62 l 0,-0.47 c 3.46,-0.7 6.05,-1.99 7.66,-3.9 1.62,-1.94 2.55,-5.28 2.8,-9.95 0.09,-5.7 0.34,-9.15 0.63,-10.34 0.28,-1.24 0.82,-2.39 1.64,-3.53 l -10.11,0 c -0.96,1.19 -1.53,2.41 -1.82,3.73 -0.29,1.28 -0.41,4.15 -0.41,8.57 -0.12,5.2 -1.12,8.55 -3.09,10.05 -1.98,1.53 -4.79,2.29 -8.53,2.29 l -13.93,0 0,-24.64"
             style="fill:#f89c0e;fill-opacity:1;fill-rule:nonzero;stroke:none"
             id="path28"
             inkscape:connector-curvature="0" /><path
             d="m 5006.7,5164.02 c -28.16,0 -51.07,22.84 -51.07,51.02 0,28.23 22.91,51.05 51.07,51.05 28.2,0 51.04,-22.82 51.04,-51.05 0,-28.18 -22.84,-51.02 -51.04,-51.02 m 0.06,111.02 c -33.2,0 -60.16,-26.93 -60.16,-60.16 0,-33.23 26.96,-60.17 60.16,-60.17 33.24,0 60.14,26.94 60.14,60.17 0,33.23 -26.9,60.16 -60.14,60.16"
             style="fill:#f89c0e;fill-opacity:1;fill-rule:nonzero;stroke:none"
             id="path30"
             inkscape:connector-curvature="0" /><path
             d="m 2698.73,5202.54 c -57.09,0.82 -100.82,-32.33 -127.78,-54.38 -29.97,32.07 -68.29,51.66 -107.7,54.11 -41.54,2.57 -80.5,-11.43 -105.27,-31.56 -8.66,20.13 -20.1,31.97 -39.71,31.97 -21.45,0 -44.29,-18.36 -44.29,-48.27 0,-29.89 0.27,-388.07 0.27,-388.07 0,-22.32 19.02,-44.88 46.18,-44.88 29.96,0 46.53,22.9 46.53,45.04 l 0,287.84 c 0,28 47.88,61.18 88.38,60.64 25.86,-0.37 56.59,-25.85 56.59,-66.1 l 0.25,-283.11 c 0,-25 25.18,-44.16 48.02,-44.16 27.16,0 47.73,20.53 47.73,43.91 l 0,286.09 c 0,35.09 53.27,64.45 89.73,62.57 28.57,-1.52 53.84,-32.66 53.84,-62.57 l 0,-285.68 c 0,-24.73 23.23,-44.32 48.27,-44.32 22,0 47.44,14.57 47.44,44.73 l 0,284.46 c 0.31,104.41 -102.8,153.11 -148.48,151.74"
             style="fill:#ffffff;fill-opacity:1;fill-rule:nonzero;stroke:none"
             id="path32"
             inkscape:connector-curvature="0" /><path
             d="m 3492.48,5202.79 c -27.87,-0.11 -45.86,-22.94 -45.9,-46.14 l 0.1,-389.88 c -0.2,-25.89 20.29,-45.17 45.62,-45.17 28.89,0 47.35,22.58 47.35,47.19 l 0.19,387.19 c 0,22.93 -23.12,46.9 -47.36,46.81"
             style="fill:#ffffff;fill-opacity:1;fill-rule:nonzero;stroke:none"
             id="path34"
             inkscape:connector-curvature="0" /><path
             d="m 3134.61,4810.54 c -83.79,0 -151.69,67.88 -151.69,151.63 0,83.76 67.9,151.63 151.69,151.63 83.79,0 151.72,-67.87 151.72,-151.63 0,-83.75 -67.93,-151.63 -151.72,-151.63 m 196.02,392.14 c -26.18,0.03 -44.69,-20.91 -44.69,-41.32 l 0,-15.93 c -41.31,35.18 -94.83,57.01 -152.62,57.1 -127.15,0.18 -239.74,-106.91 -239.74,-240.91 0,-122.86 107.28,-240.16 239.74,-240.16 53.58,0 111.21,20.58 152.17,55.55 l 0.12,-11.37 c 0,-21.81 17.26,-44.18 45.64,-44.18 32.25,0 46.68,25.76 46.68,46.08 l 0,391.31 c 0.33,18.39 -19.84,43.8 -47.3,43.83"
             style="fill:#ffffff;fill-opacity:1;fill-rule:nonzero;stroke:none"
             id="path36"
             inkscape:connector-curvature="0" /><path
             d="m 3811.7,4814.61 c -59.02,0.04 -111.66,45.44 -111.66,112.35 l 0.08,370.66 c -0.08,25.6 -20.96,43.53 -46.51,43.53 -29.66,-0.1 -46.77,-21.93 -46.77,-43.53 l 0,-371.03 c -0.35,-115.12 94.86,-205.37 203.22,-205.37 32.19,0 47.69,26.09 47.69,48.23 0,21.09 -16.62,45.16 -46.05,45.16"
             style="fill:#ffffff;fill-opacity:1;fill-rule:nonzero;stroke:none"
             id="path38"
             inkscape:connector-curvature="0" /><path
             d="m 4314.1,5202.87 c -129.86,-0.57 -240.64,-115.01 -240,-240.99 l 0,-196.35 c 0,-25.57 20.92,-44.3 42.97,-44.3 26.25,0 46.62,19.36 46.62,42.96 l 0,199.34 c -0.06,71.38 62.28,150.16 149.84,149.73 28.48,-0.12 47.21,21.5 47.05,45.43 -0.09,19.11 -13.82,44.3 -46.48,44.18"
             style="fill:#f89c0e;fill-opacity:1;fill-rule:evenodd;stroke:none"
             id="path40"
             inkscape:connector-curvature="0" /><path
             d="m 4853.48,5202.87 c -27.62,0 -45.39,-22.63 -45.39,-43.49 l 0.02,-197.6 c 0,-76.25 -64.24,-150.74 -153.56,-150.74 -73,0 -150.35,63.35 -150.35,149.34 l 0,197.94 c 0,20.76 -15.58,44.55 -46.5,44.55 -21.84,0 -44.14,-18.32 -44.14,-43.68 l 0,-197.27 c 0,-127.76 114.16,-240.24 240.72,-240.24 138.16,0 244.2,118.44 244.2,239.65 l 0,197.94 c 0,22.19 -18.3,43.6 -45,43.6"
             style="fill:#f89c0e;fill-opacity:1;fill-rule:evenodd;stroke:none"
             id="path42"
             inkscape:connector-curvature="0" /></g></g></g></g></svg>