<?xml version="1.0" encoding="UTF-8" standalone="no"?>
<!-- Created with Inkscape (http://www.inkscape.org/) -->

<svg
   xmlns:dc="http://purl.org/dc/elements/1.1/"
   xmlns:cc="http://creativecommons.org/ns#"
   xmlns:rdf="http://www.w3.org/1999/02/22-rdf-syntax-ns#"
   xmlns:svg="http://www.w3.org/2000/svg"
   xmlns="http://www.w3.org/2000/svg"
   xmlns:sodipodi="http://sodipodi.sourceforge.net/DTD/sodipodi-0.dtd"
   xmlns:inkscape="http://www.inkscape.org/namespaces/inkscape"
   id="svg2"
   version="1.1"
   inkscape:version="0.48.3.1 r9886"
   width="998.41101"
   height="132.33624"
   xml:space="preserve"
   sodipodi:docname="tehnopark_plashka.svg"><metadata
     id="metadata8"><rdf:RDF><cc:Work
         rdf:about=""><dc:format>image/svg+xml</dc:format><dc:type
           rdf:resource="http://purl.org/dc/dcmitype/StillImage" /><dc:title></dc:title></cc:Work></rdf:RDF></metadata><defs
     id="defs6"><clipPath
       clipPathUnits="userSpaceOnUse"
       id="clipPath18"><path
         d="m 0,0 4123,0 0,1058.69 -4123,0 L 0,0 z"
         id="path20"
         inkscape:connector-curvature="0" /></clipPath></defs><sodipodi:namedview
     pagecolor="#ffffff"
     bordercolor="#666666"
     borderopacity="1"
     objecttolerance="10"
     gridtolerance="10"
     guidetolerance="10"
     inkscape:pageopacity="0"
     inkscape:pageshadow="2"
     inkscape:window-width="1217"
     inkscape:window-height="630"
     id="namedview4"
     showgrid="false"
     inkscape:zoom="1.0536743"
     inkscape:cx="531.10851"
     inkscape:cy="142.09292"
     inkscape:window-x="128"
     inkscape:window-y="24"
     inkscape:window-maximized="0"
     inkscape:current-layer="g10"
     showguides="true"
     inkscape:guide-bbox="true"
     inkscape:snap-center="true"
     fit-margin-top="0"
     fit-margin-left="0"
     fit-margin-right="0"
     fit-margin-bottom="0"><sodipodi:guide
       orientation="0,1"
       position="307.39207,34.265655"
       id="guide3003" /><sodipodi:guide
       orientation="0,1"
       position="553.17665,94.463825"
       id="guide3007" /></sodipodi:namedview><g
     id="g10"
     inkscape:groupmode="layer"
     inkscape:label="ink_ext_XXXXXX"
     transform="matrix(1.25,0,0,-1.25,483.00352,132.33625)"><path
       inkscape:connector-curvature="0"
       id="path24"
       style="fill:#f89c0e;fill-opacity:1;fill-rule:evenodd;stroke:none"
       d="M 74.6742,53.2777 C 74.2465,61.5957 68.0715,66.598 60.6156,66.598 l -0.282,0 c -8.6047,0 -13.377,-6.7671 -13.377,-14.4542 0,-8.6059 5.7735,-14.0434 13.3442,-14.0434 8.4402,0 13.9902,6.1828 14.3922,13.4973 l -0.0188,1.68 z M 60.3762,74.041 c 5.75,0 11.1566,-2.541 15.125,-6.5207 l 0,-0.0152 c 0,1.9101 1.2855,3.3508 3.0711,3.3508 l 0.4511,0.0023 c 2.7914,0 3.3649,-2.6402 3.3649,-3.4773 l 0.014,-29.7032 c -0.1972,-1.9453 2.0063,-2.9492 3.2286,-1.7011 4.7699,4.9011 10.475,25.1972 -2.9653,36.9566 C 70.1391,83.8969 53.3316,82.0906 44.393,75.9285 34.891,69.3754 28.8102,54.8695 34.7172,41.2449 41.1555,26.3848 59.5797,21.9531 70.5293,26.3758 c 5.5453,2.2363 8.1062,-5.2586 2.3473,-7.707 C 64.1754,14.9629 39.957,15.3367 28.643,34.9336 20.9996,48.1668 21.4059,71.4492 41.6793,83.5125 57.1875,92.7422 77.6348,90.1883 89.9641,77.3113 102.852,63.8488 102.1,38.6414 89.5289,28.8426 83.8336,24.3906 75.3746,28.7227 75.4281,35.2109 l -0.0586,2.1211 c -3.9664,-3.9355 -9.2433,-6.2316 -14.9933,-6.2316 -11.361,0 -21.3567,9.9941 -21.3567,21.3547 0,11.4734 9.9957,21.5859 21.3567,21.5859 l 0,0" /><path
       inkscape:connector-curvature="0"
       id="path26"
       style="fill:#f89c0e;fill-opacity:1;fill-rule:evenodd;stroke:none"
       d="m 282.518,30.7559 c -0.023,-1.8399 -1.947,-3.7227 -4.736,-3.7227 -2.816,0 -4.569,2.0535 -4.569,3.873 l 0.005,3.1434 c 0.031,1.8899 1.782,3.8535 4.636,3.8535 3.123,0 4.674,-2.1054 4.674,-4.084 l -0.01,-3.0632" /><path
       inkscape:connector-curvature="0"
       id="path28"
       style="fill:#ffffff;fill-opacity:1;fill-rule:nonzero;stroke:none"
       d="m 235.517,82.3086 c 0,-1.9387 -1.941,-3.5309 -4.732,-3.5309 -2.813,0 -4.566,1.9258 -4.566,3.7422 l 0.002,2.4985 c 0.033,1.8906 1.685,4.0078 4.538,4.0078 3.122,0 4.758,-2.0254 4.758,-4.0078 l 0,-2.7098" /><path
       inkscape:connector-curvature="0"
       id="path30"
       style="fill:#f89c0e;fill-opacity:1;fill-rule:nonzero;stroke:none"
       d="m 380.971,78.673 0,-2.0335 1.479,0 c 0.383,0 0.678,0.0941 0.887,0.2785 0.203,0.1882 0.311,0.4441 0.316,0.7683 -0.005,0.3196 -0.109,0.5617 -0.306,0.7285 -0.195,0.1672 -0.536,0.254 -1.017,0.2582 l -1.359,0 z m -1.003,-5.1503 0,5.8023 2.522,0 c 0.723,-0.0078 1.268,-0.1371 1.644,-0.3969 0.371,-0.2582 0.557,-0.6625 0.567,-1.2172 0,-0.3671 -0.114,-0.6679 -0.343,-0.9066 -0.224,-0.2391 -0.52,-0.3961 -0.87,-0.4617 l 0,-0.0473 c 0.347,-0.0703 0.604,-0.1988 0.766,-0.3902 0.163,-0.1938 0.254,-0.5281 0.28,-0.9949 0.009,-0.5696 0.033,-0.9153 0.063,-1.034 0.028,-0.1242 0.082,-0.2387 0.164,-0.3535 l -1.01,0 c -0.098,0.1199 -0.155,0.2418 -0.183,0.3738 -0.028,0.1277 -0.042,0.4144 -0.042,0.8562 -0.012,0.5207 -0.11,0.8555 -0.308,1.0059 -0.197,0.1523 -0.479,0.2293 -0.853,0.2293 l -1.394,0 0,-2.4652 -1.003,0" /><path
       inkscape:connector-curvature="0"
       id="path32"
       style="fill:#f89c0e;fill-opacity:1;fill-rule:nonzero;stroke:none"
       d="m 382.248,71.3129 c -2.818,0 -5.109,2.2836 -5.109,5.1019 0,2.8235 2.291,5.1051 5.109,5.1051 2.819,0 5.103,-2.2816 5.103,-5.1051 0,-2.8183 -2.284,-5.1019 -5.103,-5.1019 z m 0.004,11.1019 c -3.32,0 -6.015,-2.6933 -6.015,-6.016 0,-3.3226 2.695,-6.0168 6.015,-6.0168 3.325,0 6.015,2.6942 6.015,6.0168 0,3.3227 -2.69,6.016 -6.015,6.016" /><path
       inkscape:connector-curvature="0"
       id="path34"
       style="fill:#ffffff;fill-opacity:1;fill-rule:nonzero;stroke:none"
       d="m 151.451,75.1641 c -5.71,0.0832 -10.082,-3.2321 -12.78,-5.4375 -2.996,3.2074 -6.828,5.166 -10.769,5.4105 -4.154,0.2574 -8.05,-1.1422 -10.527,-3.1547 -0.867,2.0125 -2.011,3.1969 -3.971,3.1969 -2.145,0 -4.429,-1.8367 -4.429,-4.8273 0,-2.9903 0.026,-38.8071 0.026,-38.8071 0,-2.2324 1.903,-4.4883 4.62,-4.4883 2.996,0 4.652,2.2891 4.652,4.5028 l 0,28.7847 c 0,2.8012 4.789,6.1176 8.837,6.0649 2.587,-0.0367 5.661,-2.5848 5.661,-6.6098 l 0.023,-28.3109 c 0,-2.5 2.519,-4.4172 4.803,-4.4172 2.716,0 4.773,2.0539 4.773,4.3918 l 0,28.6086 c 0,3.5086 5.326,6.4453 8.973,6.2566 2.857,-0.1519 5.386,-3.2652 5.386,-6.2566 l 0,-28.5688 c 0,-2.4715 2.321,-4.4316 4.826,-4.4316 2.199,0 4.744,1.457 4.744,4.4738 l 0,28.4457 c 0.031,10.441 -10.28,15.311 -14.848,15.1735" /><path
       inkscape:connector-curvature="0"
       id="path36"
       style="fill:#ffffff;fill-opacity:1;fill-rule:nonzero;stroke:none"
       d="m 230.825,75.1898 c -2.787,-0.0105 -4.585,-2.2945 -4.589,-4.6136 l 0.009,-38.9883 c -0.019,-2.5899 2.03,-4.5168 4.563,-4.5168 2.888,0 4.734,2.2578 4.734,4.718 l 0.02,38.7199 c 0,2.2926 -2.312,4.6902 -4.737,4.6808" /><path
       inkscape:connector-curvature="0"
       id="path38"
       style="fill:#ffffff;fill-opacity:1;fill-rule:nonzero;stroke:none"
       d="m 195.039,35.9648 c -8.38,0 -15.17,6.7879 -15.17,15.1629 0,8.3754 6.79,15.1625 15.17,15.1625 8.378,0 15.171,-6.7871 15.171,-15.1625 0,-8.375 -6.793,-15.1629 -15.171,-15.1629 z m 19.601,39.2145 c -2.618,0.0023 -4.47,-2.0914 -4.47,-4.1332 l 0,-1.5922 c -4.13,3.5176 -9.481,5.7008 -15.261,5.7102 -12.714,0.0175 -23.974,-10.6914 -23.974,-24.0911 0,-12.2859 10.729,-24.0164 23.974,-24.0164 5.358,0 11.121,2.0586 15.216,5.5555 l 0.012,-1.1375 c 0,-2.1808 1.728,-4.418 4.566,-4.418 3.224,0 4.667,2.5762 4.667,4.6082 l 0,39.1309 c 0.033,1.8391 -1.984,4.3801 -4.73,4.3836" /><path
       inkscape:connector-curvature="0"
       id="path40"
       style="fill:#ffffff;fill-opacity:1;fill-rule:nonzero;stroke:none"
       d="m 262.748,36.3711 c -5.903,0.0047 -11.166,4.5449 -11.166,11.2363 l 0.007,37.0656 c -0.007,2.5602 -2.096,4.3532 -4.65,4.3532 -2.968,-0.0106 -4.679,-2.1934 -4.679,-4.3532 l 0,-37.1027 c -0.035,-11.5117 9.487,-20.5371 20.323,-20.5371 3.219,0 4.77,2.6082 4.77,4.8223 0,2.1093 -1.663,4.5156 -4.605,4.5156" /><path
       inkscape:connector-curvature="0"
       id="path42"
       style="fill:#f89c0e;fill-opacity:1;fill-rule:evenodd;stroke:none"
       d="M 312.987,75.1973 C 300,75.1414 288.923,63.6961 288.987,51.0984 l 0,-19.6355 c 0,-2.5567 2.092,-4.4297 4.298,-4.4297 2.625,0 4.662,1.9363 4.662,4.2957 l 0,19.9348 c -0.007,7.1375 6.228,15.0148 14.984,14.9726 2.848,-0.0109 4.721,2.1496 4.704,4.543 -0.01,1.9105 -1.382,4.4297 -4.648,4.418" /><path
       inkscape:connector-curvature="0"
       id="path44"
       style="fill:#f89c0e;fill-opacity:1;fill-rule:evenodd;stroke:none"
       d="m 366.925,75.1973 c -2.761,0 -4.54,-2.2633 -4.54,-4.3489 l 0.002,-19.7605 c 0,-7.625 -6.424,-15.0734 -15.354,-15.0734 -7.301,0 -15.036,6.3351 -15.036,14.9335 l 0,19.7942 c 0,2.0754 -1.558,4.4551 -4.651,4.4551 -2.182,0 -4.413,-1.8321 -4.413,-4.3684 l 0,-19.7266 c 0,-12.7761 11.415,-24.0242 24.071,-24.0242 13.817,0 24.42,11.8446 24.42,23.9649 l 0,19.7937 c 0,2.2199 -1.83,4.3606 -4.499,4.3606" /><path
       style="font-size:64.93144989px;font-style:normal;font-variant:normal;font-weight:bold;font-stretch:normal;line-height:125%;letter-spacing:0px;word-spacing:0px;fill:#ffffff;fill-opacity:1;stroke:none;font-family:Arial;-inkscape-font-specification:Arial Bold"
       d="m -176.74292,76.060167 c -3.58098,-4.9e-5 -6.74806,-0.645367 -9.48879,-1.907518 -2.06056,-0.935813 -3.96276,-2.367364 -5.70323,-4.304143 -1.72047,-1.936862 -3.08415,-4.116724 -4.08441,-6.554035 -1.34036,-3.307864 -1.99239,-7.401919 -1.99239,-12.27659 0,-7.616733 1.9169,-13.597833 5.77794,-17.950232 3.86104,-4.33065 9.07361,-6.505125 15.6154,-6.505125 6.46173,0 11.6298,2.177169 15.49088,6.52958 3.861,4.374162 5.7779,10.420332 5.77794,18.145876 -4e-5,7.790782 -1.95164,13.869487 -5.85266,18.243696 -3.88107,4.374125 -9.05895,6.578442 -15.54068,6.578491 z M 13.231986,75.57106 C 12.571772,75.549246 12.136949,75.5221 11.936929,75.522149 7.8357884,75.5221 4.886335,74.901239 3.045865,73.639087 1.185337,72.376843 -0.66746176,69.158546 -2.5079373,63.979221 -3.9683518,59.909685 -5.0454086,57.437006 -5.7455799,56.544792 -6.4457861,55.65252 -7.7996601,55.074964 -9.7801806,54.857372 l 0,20.371313 -8.8910654,0 0,-47.834679 8.8910654,0 0,20.933786 c 1.5003911,-0.02179 2.6170513,-0.317294 3.3372623,-0.904848 0.7401828,-0.587595 1.6739315,-2.051681 2.8142586,-4.401965 0.640153,-1.327499 1.0206747,-2.075809 1.1207224,-2.249892 0.2600494,-0.50054 0.4180561,-0.853041 0.4980989,-1.027125 l 5.2549429,-12.349956 10.4351705,0 -6.0020906,13.108072 c -1.5404464,3.373101 -2.9584213,5.975921 -4.2587453,7.825714 -1.2803719,1.849751 -2.9008565,3.083397 -4.8813688,3.692759 1.60040977,0.979267 2.71707,2.020394 3.3372624,3.130286 0.6401475,1.109836 1.2280783,2.503464 1.7682509,4.15741 1.0202482,3.111938 1.7710853,5.16166 2.2912548,6.162751 0.520111,1.001015 1.2019476,1.746632 2.0422053,2.225437 0.8401958,0.500487 2.1891703,0.758075 4.0096953,0.758116 l 1.245247,-0.04891 0,7.16542 z m -376.687266,-0.342375 0,-8.094723 13.05019,0 0,-39.739956 8.89106,0 0,39.739956 13.02529,0 0,8.094723 -34.96654,0 z m 40.71958,0 0,-47.834679 33.47225,0 0,8.045813 -24.58118,0 0,13.034705 22.09068,0 0,8.070268 -22.09068,0 0,10.58917 23.73441,0 0,8.094723 -32.62548,0 z m 37.98004,0 13.64791,-22.865759 -15.04259,-24.96892 10.65932,0 9.76274,16.531822 9.76273,-16.531822 10.70913,0 -15.04259,24.60209 13.69772,23.232589 -10.28574,0 -8.64201,-15.357964 -8.84126,15.357964 -10.38536,0 z m 44.15646,0 0,-47.834679 8.89107,0 0,20.909331 17.38365,0 0,-20.909331 8.89106,0 0,47.834679 -8.89106,0 0,-18.830625 -17.38365,0 0,18.830625 -8.89107,0 z m 92.27282,0 0,-47.834679 8.89106,0 0,39.813322 17.20932,0 0,-39.813322 8.89106,0 0,47.834679 -34.99144,0 z m 56.708556,0 -17.134606,-47.834679 9.438979,0 3.611217,10.858179 17.58289,0 3.860266,-10.858179 9.663118,0 -17.6327,47.834679 -9.389164,0 z m 31.753803,0 0,-47.834679 8.891064,0 0,18.048054 5.777947,0 c 4.021066,-1.8e-5 7.094229,0.227729 9.214829,0.68475 1.560392,0.369935 3.106977,1.118247 4.607415,2.249893 1.520377,1.153366 2.755441,2.717751 3.735741,4.719884 0.980228,2.002081 1.469354,4.472066 1.469392,7.409973 -3.8e-5,3.808321 -0.839882,6.923626 -2.540305,9.317491 -1.700493,2.415543 -3.805204,3.977235 -6.325855,4.695429 -1.640471,0.478717 -5.183163,0.709157 -10.584601,0.709205 l -14.245627,0 z M -176.6433,67.794256 c 3.66096,-4.1e-5 6.59082,-1.336679 8.79144,-4.035134 2.22057,-2.698527 3.31232,-6.792582 3.31236,-12.276589 -4e-5,-5.549341 -1.13139,-9.735615 -3.41198,-12.521143 -2.26064,-2.763789 -5.15089,-4.132963 -8.69182,-4.132955 -3.54098,-8e-6 -6.46593,1.396315 -8.76654,4.181866 -2.30063,2.807289 -3.46179,6.906731 -3.46179,12.3255 0,5.505769 1.12156,9.629666 3.36217,12.349955 2.2406,2.74198 5.20515,4.108459 8.86616,4.1085 z m 125.670343,-0.660294 4.283651,0 c 3.200846,-4e-5 5.340261,-0.10034 6.40057,-0.31792 1.440364,-0.282945 2.621127,-0.996027 3.561407,-2.127616 0.940226,-1.131663 1.419554,-2.563214 1.419582,-4.304143 -2.8e-5,-1.414564 -0.340947,-2.650904 -1.021103,-3.717214 -0.660205,-1.066369 -1.584156,-1.847215 -2.764449,-2.347714 -1.180343,-0.500555 -3.522268,-0.758142 -7.023194,-0.758117 l -4.856464,0 0,13.572724 z m -36.037452,-3.05692 6.051901,-17.754589 -12.004182,0 5.952281,17.754589 z"
       id="text2999"
       inkscape:connector-curvature="0" /></g></svg>